<?xml version="1.0" encoding="UTF-8" standalone="no"?>
<svg
   width="175"
   height="500"
   viewBox="0 0 175 500"
   fill="none"
   version="1.1"
   id="svg1"
   sodipodi:docname="body_front.svg"
   inkscape:version="1.3.2 (091e20e, 2023-11-25)"
   xmlns:inkscape="http://www.inkscape.org/namespaces/inkscape"
   xmlns:sodipodi="http://sodipodi.sourceforge.net/DTD/sodipodi-0.dtd"
   xmlns="http://www.w3.org/2000/svg"
   xmlns:svg="http://www.w3.org/2000/svg">
  <sodipodi:namedview
     id="namedview1"
     pagecolor="#ffffff"
     bordercolor="#000000"
     borderopacity="0.25"
     inkscape:showpageshadow="2"
     inkscape:pageopacity="0.0"
     inkscape:pagecheckerboard="0"
     inkscape:deskcolor="#d1d1d1"
     inkscape:zoom="1.768"
     inkscape:cx="87.669683"
     inkscape:cy="250"
     inkscape:window-width="1920"
     inkscape:window-height="1027"
     inkscape:window-x="0"
     inkscape:window-y="25"
     inkscape:window-maximized="1"
     inkscape:current-layer="body_front" />
  <g
     id="body_front"
     clip-path="url(#clip0_687_144)">
    <g
       id="shoulder">
      <path
         id="shoulder_left"
         d="M57.7 95.6096C57.66 97.4096 56.78 98.7396 55.94 100.1C52.87 105.05 48.33 108.67 43.98 112.36C41.47 114.5 38.74 116.56 35.52 117.74C32.24 118.93 29.52 118.47 28.29 114.56C27.86 113.17 27.77 111.68 27.52 110.23C27.66 107.48 28.12 104.91 29.3 102.41C30.43 99.9896 31.56 97.6896 33.47 95.7096C36.15 92.9196 39.5 91.4796 43.03 90.4696C45.16 89.8596 47.52 89.9496 49.78 89.8496C51.89 89.7596 53.78 90.5696 55.42 91.7696C56.66 92.6696 57.75 93.6996 57.7 95.6096Z"
         fill="#0066F9"
         class="shoulder" />
      <path
         id="shoulder_right"
         d="M147.01 110.23C146.76 111.68 146.67 113.17 146.24 114.56C145.01 118.47 142.29 118.93 139.01 117.74C135.79 116.56 133.07 114.5 130.56 112.36C126.2 108.67 121.67 105.05 118.59 100.1C117.75 98.7396 116.87 97.4096 116.83 95.6096C116.78 93.6996 117.87 92.6696 119.11 91.7696C120.75 90.5696 122.65 89.7596 124.75 89.8496C127.01 89.9496 129.37 89.8596 131.51 90.4696C135.03 91.4796 138.38 92.9196 141.07 95.7096C142.97 97.6896 144.1 99.9896 145.23 102.41C146.41 104.91 146.87 107.48 147.01 110.23Z"
         fill="#0066F9"
         class="shoulder" />
    </g>
    <g
       id="chest">
      <path
         id="chest_right"
         d="M119.558 145.697C116.818 146.137 114.018 146.197 110.248 146.507C107.198 146.097 103.148 145.817 99.2382 144.957C93.5282 143.707 91.1582 139.127 90.3582 133.737C89.3782 127.127 89.4982 120.377 90.5882 113.787C92.2082 104.017 102.628 106.657 108.978 110.237C116.488 114.467 124.858 121.127 125.618 130.367C126.058 135.707 126.288 144.617 119.558 145.697Z"
         fill="#0066F9"
         class="chest" />
      <path
         id="chest_left"
         d="M84.4482 133.737C83.6482 139.127 81.2782 143.707 75.5682 144.957C71.6582 145.817 67.6082 146.097 64.5582 146.507C60.7982 146.197 57.9882 146.137 55.2482 145.697C48.5182 144.617 48.7482 135.707 49.1882 130.367C49.9482 121.127 58.3182 114.467 65.8282 110.237C72.1782 106.657 82.5982 104.017 84.2182 113.787C85.3082 120.377 85.4282 127.127 84.4482 133.737Z"
         fill="#0066F9"
         class="chest" />
    </g>
    <g
       id="biceps">
      <path
         id="biceps_right"
         d="M157.744 170.32C157.764 171.73 157.704 173.13 157.544 174.53C157.484 175.03 157.394 175.55 157.114 175.97C156.494 176.88 155.194 177 154.104 176.85C150.804 176.4 147.834 174.44 145.674 171.91C143.514 169.37 142.084 166.29 140.964 163.16C137.634 153.9 136.064 143.36 135.484 133.55C135.404 132.32 135.694 130.92 136.054 129.75C136.374 128.75 136.974 127.78 137.924 127.33C138.504 127.06 139.164 127 139.804 127C147.294 127.07 151.454 132.97 153.454 139.49C155.914 147.48 156.744 155.95 157.404 164.17C157.564 166.21 157.724 168.27 157.744 170.32Z"
         fill="#0066F9"
         class="biceps" />
      <path
         id="biceps_left"
         d="M38.2537 133.55C37.6737 143.36 36.1037 153.9 32.7837 163.16C31.6537 166.29 30.2237 169.37 28.0637 171.91C25.9037 174.44 22.9337 176.4 19.6337 176.85C18.5437 177 17.2437 176.88 16.6337 175.97C16.3537 175.55 16.2637 175.03 16.2037 174.53C16.0437 173.13 15.9837 171.73 16.0037 170.32C16.0237 168.27 16.1837 166.21 16.3437 164.17C16.9937 155.95 17.8237 147.48 20.2837 139.49C22.2837 132.97 26.4437 127.07 33.9437 127C34.5837 127 35.2337 127.06 35.8137 127.33C36.7637 127.78 37.3637 128.75 37.6837 129.75C38.0437 130.92 38.3337 132.32 38.2537 133.55Z"
         fill="#0066F9"
         class="biceps" />
    </g>
    <g
       id="abs">
      <path
         id="abs01"
         d="M105.362 170.005C105.222 170.975 104.992 172.025 104.232 172.625C103.662 173.075 102.902 173.185 102.192 173.255C100.722 173.405 99.242 173.455 97.762 173.405C95.702 173.325 93.492 172.975 92.012 171.545C90.572 170.145 90.142 168.005 89.962 166.005C89.842 164.765 89.742 163.455 89.712 162.145C89.662 159.935 89.832 157.705 90.532 155.705C92.512 149.995 98.322 154.715 101.212 157.225C103.042 158.805 104.592 160.805 105.262 163.125C105.902 165.345 105.712 167.715 105.362 170.005Z"
         fill="#0066F9"
         class="abs" />
      <path
         id="abs02"
         d="M104.942 189.384C104.882 190.204 104.822 191.054 104.482 191.804C103.862 193.184 102.312 194.014 100.822 194.024C98.5321 194.034 96.2221 193.934 93.9221 194.054C91.6321 194.174 89.8921 191.994 89.8821 189.994C89.8621 188.304 89.8721 186.604 89.8721 184.914C89.8721 183.314 89.8621 181.724 89.8821 180.124C89.9021 178.204 91.0321 176.934 92.7821 176.194C94.9521 175.284 97.1821 175.524 99.2921 175.764C105.912 176.514 105.272 184.374 104.942 189.384Z"
         fill="#0066F9"
         class="abs" />
      <path
         id="abs03"
         d="M104.912 210.035C103.942 215.335 98.212 215.605 93.962 215.105C91.072 214.765 90.272 212.765 90.172 210.235C90.112 208.785 90.162 207.325 90.162 205.865C90.112 205.865 90.072 205.865 90.022 205.865C90.162 203.865 90.082 201.825 90.492 199.885C90.952 197.705 92.312 196.875 94.522 196.865C96.642 196.865 98.772 197.015 100.862 196.825C102.822 196.645 105.242 198.655 105.312 200.555C105.442 203.715 105.482 206.955 104.912 210.045V210.035Z"
         fill="#0066F9"
         class="abs" />
      <path
         id="abs04"
         d="M84.5119 205.865C84.5119 207.325 84.5619 208.785 84.5119 210.235C84.4119 212.765 83.6119 214.765 80.7219 215.105C76.4719 215.605 70.7519 215.335 69.7819 210.035C69.2119 206.945 69.2519 203.705 69.3819 200.545C69.4519 198.645 71.8619 196.635 73.8219 196.815C75.9119 197.005 78.0519 196.855 80.1619 196.855C82.3719 196.855 83.7319 197.695 84.1919 199.875C84.6019 201.815 84.5219 203.855 84.6619 205.855C84.6119 205.855 84.5719 205.855 84.5219 205.855L84.5119 205.865Z"
         fill="#0066F9"
         class="abs" />
      <path
         id="abs05"
         d="M84.802 184.914C84.802 186.604 84.812 188.304 84.792 189.994C84.782 191.994 83.042 194.174 80.752 194.054C78.462 193.934 76.142 194.034 73.852 194.024C72.362 194.014 70.822 193.184 70.202 191.804C69.862 191.054 69.802 190.204 69.742 189.384C69.412 184.374 68.772 176.514 75.382 175.764C77.502 175.524 79.732 175.284 81.892 176.194C83.642 176.934 84.772 178.204 84.792 180.124C84.812 181.724 84.802 183.314 84.802 184.914Z"
         fill="#0066F9"
         class="abs" />
      <path
         id="abs06"
         d="M84.962 162.145C84.932 163.455 84.832 164.765 84.712 166.005C84.532 168.005 84.102 170.145 82.662 171.545C81.182 172.975 78.982 173.325 76.912 173.405C75.432 173.455 73.952 173.405 72.482 173.255C71.772 173.185 71.012 173.075 70.452 172.625C69.692 172.025 69.462 170.975 69.322 170.005C68.972 167.715 68.782 165.345 69.422 163.125C70.092 160.805 71.632 158.805 73.462 157.225C76.352 154.715 82.162 149.995 84.142 155.705C84.842 157.705 85.012 159.935 84.962 162.145Z"
         fill="#0066F9"
         class="abs" />
    </g>
    <g
       id="obliques">
      <path
         id="obliques_right"
         d="M122.425 165.225C122.335 166.235 122.215 167.205 122.175 168.055C121.905 173.165 121.705 178.285 121.435 183.385C121.075 190.275 121.015 198.465 117.545 204.645C116.335 206.805 114.435 208.675 112.045 209.315C111.135 209.565 110.055 209.585 109.375 208.935C108.805 208.405 108.665 207.575 108.565 206.795C107.485 197.895 108.255 188.305 109.155 179.405C109.655 174.505 108.895 169.015 111.485 164.595C112.565 162.735 118.855 155.775 121.285 158.715C122.675 160.385 122.625 162.905 122.425 165.225Z"
         fill="#0066F9"
         class="obliques" />
      <path
         id="obliques_left"
         d="M65.955 206.795C65.855 207.575 65.715 208.405 65.145 208.935C64.465 209.585 63.385 209.565 62.475 209.315C60.095 208.675 58.185 206.805 56.975 204.645C53.505 198.465 53.445 190.275 53.085 183.385C52.825 178.285 52.625 173.165 52.355 168.055C52.315 167.205 52.195 166.235 52.105 165.225C51.905 162.905 51.855 160.385 53.235 158.715C55.665 155.775 61.955 162.735 63.035 164.595C65.625 169.015 64.865 174.505 65.365 179.405C66.265 188.305 67.035 197.895 65.955 206.795Z"
         fill="#0066F9"
         class="obliques" />
    </g>
    <g
       id="forearms">
      <path
         id="forearms_left"
         d="M24.0734 194.481C23.9834 198.921 23.9434 203.371 23.4734 207.781C23.0134 212.151 22.0234 216.481 21.2934 220.821C20.8934 223.181 20.5934 225.571 20.1234 227.921C19.8634 229.261 19.4534 230.601 18.8934 231.851C18.0234 233.811 17.0334 233.851 15.8934 232.041C15.5334 231.481 15.2234 230.831 15.1034 230.191C13.6634 222.581 12.4734 214.721 12.1134 206.911C12.0034 204.541 11.9734 202.181 12.0234 199.831C12.0634 198.181 12.1534 196.531 12.2834 194.871C12.5434 191.731 12.3934 187.111 15.8034 185.551C19.7334 183.751 22.8034 186.671 23.5134 189.811C23.8634 191.331 24.1034 192.931 24.0734 194.481Z"
         fill="#0066F9"
         class="forearms" />
      <path
         id="forearms_right"
         d="M161.383 206.911C161.023 214.721 159.833 222.581 158.403 230.191C158.283 230.831 157.973 231.481 157.613 232.041C156.463 233.851 155.473 233.811 154.603 231.851C154.043 230.601 153.633 229.261 153.373 227.921C152.903 225.571 152.603 223.181 152.203 220.821C151.473 216.481 150.493 212.151 150.033 207.781C149.563 203.371 149.523 198.921 149.433 194.481C149.403 192.931 149.643 191.331 149.993 189.811C150.703 186.671 153.763 183.751 157.703 185.551C161.103 187.111 160.953 191.731 161.213 194.871C161.343 196.531 161.433 198.181 161.473 199.831C161.523 202.181 161.493 204.541 161.383 206.911Z"
         fill="#0066F9"
         class="forearms" />
    </g>
    <g
       id="quads">
      <path
         id="quads_right"
         d="M128.157 313.167C127.747 315.567 127.407 317.997 126.757 320.337C125.547 324.737 124.087 329.057 121.527 332.917C119.807 335.477 117.777 337.717 115.187 339.387C114.077 340.097 112.857 340.787 111.587 341.057C107.577 341.907 105.517 336.457 104.707 333.457C102.537 325.347 102.267 316.587 101.567 308.257C100.817 299.327 100.257 290.367 100.177 281.397C100.097 272.897 98.8574 261.847 106.057 255.667C108.847 253.277 112.287 251.777 115.827 250.767C119.027 249.847 122.817 249.407 125.427 251.487C127.837 253.397 128.227 256.937 128.637 259.837C129.347 264.767 129.847 269.717 130.147 274.667C130.927 287.527 130.297 300.427 128.157 313.167Z"
         fill="#0066F9"
         class="quads" />
      <path
         id="quads_left"
         d="M74.2872 281.397C74.2072 290.367 73.6472 299.327 72.8972 308.257C72.1972 316.587 71.9272 325.347 69.7672 333.457C68.9572 336.457 66.8872 341.907 62.8772 341.057C61.6172 340.787 60.3972 340.097 59.2872 339.387C56.6872 337.717 54.6572 335.477 52.9472 332.917C50.3872 329.057 48.9172 324.737 47.7072 320.337C47.0572 317.997 46.7172 315.567 46.3072 313.167C44.1672 300.427 43.5472 287.527 44.3172 274.667C44.6172 269.717 45.1172 264.767 45.8272 259.837C46.2372 256.937 46.6272 253.397 49.0372 251.487C51.6572 249.407 55.4372 249.847 58.6372 250.767C62.1772 251.777 65.6172 253.277 68.4172 255.667C75.6072 261.847 74.3672 272.897 74.2872 281.397Z"
         fill="#0066F9"
         class="quads" />
    </g>
    <path
       id="body"
       d="M174.09 256.75C173.1 252.35 171.64 247.9 168.78 244.34C167.29 242.48 166.05 240.52 165.37 238.22C164.69 235.9 164.49 233.47 164.45 231.04C164.39 227.29 164.74 223.53 164.97 219.77C165.64 208.89 165.46 198.05 163.72 187.26C162.73 181.18 161.37 175.15 160.61 169.04C159.38 159.14 158.66 149.18 157.43 139.29C156.14 129.02 154.56 118.8 153 108.57C152.48 105.09 151.51 101.62 149.89 98.5C146.23 91.42 140.07 85.13 132.16 83.12C126.28 81.62 120.05 82.59 114.07 81.64C110.74 81.11 106.25 79.58 105.08 76.08C103.72 71.98 103.51 67.54 104.14 63.29C104.32 62.1 104.55 60.93 104.83 59.78C105.42 57.36 106.23 55.01 107.13 52.68C107.97 50.54 109 48.5 109.9 46.37C115.94 32 115.58 14.09 101.47 4.63C97.2599 1.81 92.2799 0.15 87.2699 0C82.2499 0.15 77.2799 1.81 73.0599 4.63C58.9499 14.09 58.5899 32 64.6299 46.37C65.5299 48.5 66.5599 50.54 67.3999 52.68C68.3099 55.01 69.1199 57.36 69.7099 59.78C69.9899 60.93 70.2199 62.1 70.3999 63.29C71.0199 67.54 70.8199 71.98 69.4599 76.08C68.2899 79.58 63.7899 81.11 60.4699 81.64C54.4799 82.59 48.2499 81.62 42.3799 83.12C34.4699 85.13 28.2999 91.42 24.6499 98.5C23.0199 101.62 22.0499 105.09 21.5299 108.57C19.9699 118.8 18.3899 129.02 17.1099 139.29C15.8799 149.18 15.1599 159.14 13.9199 169.04C13.1599 175.15 11.7999 181.18 10.8099 187.26C9.06989 198.05 8.88989 208.89 9.55989 219.77C9.78989 223.53 10.1399 227.29 10.0799 231.04C10.0399 233.47 9.83989 235.9 9.15989 238.22C8.47989 240.52 7.24989 242.48 5.75989 244.34C2.88989 247.9 1.42989 252.35 0.439888 256.75C0.219888 257.74 0.0198885 258.69 -0.000111511 259.72C-0.0101115 260.76 0.0698885 261.8 0.0698885 262.84C0.0698885 263.2 0.999889 263.19 1.25989 263.17C1.65989 263.14 2.03989 263 2.36989 262.77C3.10989 262.26 3.62989 261.46 4.15989 260.75C4.27989 260.59 4.39989 260.43 4.52989 260.27C4.52989 261.59 4.56989 262.46 4.51989 263.33C4.25989 267.89 3.89989 272.43 3.74989 276.99C3.69989 278.46 3.98989 280 4.41989 281.41C4.88989 282.91 6.35989 283.05 7.17989 281.69C7.65989 280.89 7.86989 279.86 7.99989 278.91C8.42989 275.78 8.72989 272.65 9.14989 269.53C9.32989 268.18 9.67989 266.84 9.94989 265.5C10.0999 265.51 10.2399 265.53 10.3899 265.54C10.3899 267.02 10.3199 268.51 10.3999 269.98C10.6299 274.29 10.8899 278.61 11.2199 282.91C11.2899 283.77 11.6599 284.71 12.8599 284.66C13.9699 284.61 14.5899 283.94 14.8399 282.94C15.0499 282.08 15.2399 281.19 15.2899 280.31C15.5299 276.17 15.6999 272.04 15.9299 267.92C15.9799 266.84 16.1599 265.79 16.2799 264.73C16.4299 264.74 16.5799 264.75 16.7299 264.76C16.7999 265.21 16.9199 265.65 16.9399 266.1C17.1299 270.1 17.2699 274.09 17.5299 278.09C17.6099 279.23 17.9699 280.39 18.3899 281.46C18.5499 281.87 19.2499 282.35 19.6699 282.32C20.1699 282.28 20.6999 281.8 21.0799 281.39C21.3399 281.11 21.3999 280.61 21.4599 280.2C22.1999 275.68 22.5599 271.16 21.9899 266.58C21.8599 265.55 22.0799 264.48 22.1399 263.43H22.6599C22.8799 264.28 23.2299 265.12 23.3199 265.98C23.5499 268.56 23.6499 271.15 23.8499 273.72C23.9299 274.77 23.7999 276.24 25.2299 276.26C26.7499 276.29 26.8499 274.75 26.9299 273.62C27.6799 262.99 27.7199 252.38 25.9599 241.81C25.0099 236.12 24.8799 230.41 26.2999 224.72C27.3099 220.66 28.3999 216.57 28.7899 212.42C29.3299 206.82 29.1699 201.15 29.4399 195.51C29.6099 192 29.5699 188.39 30.3999 185C32.1699 177.8 34.4199 170.72 36.5299 163.6C38.5799 156.65 40.9199 149.79 42.0299 142.61C42.1299 141.95 42.2199 141.3 42.3699 140.29C42.7499 140.92 42.9399 141.18 43.0699 141.47C46.6399 149.65 48.5699 158.13 47.8499 167.13C47.6399 169.81 47.5299 172.49 47.5399 175.17C47.5899 184.95 47.8399 194.73 47.7699 204.51C47.7099 212.43 46.1599 220.12 43.3099 227.53C40.3599 235.17 38.4099 243.06 37.8299 251.23C37.3099 258.68 36.9799 266.16 36.6999 273.63C36.2299 286.23 37.0399 298.75 39.2599 311.16C41.2299 322.09 43.5299 332.95 45.3699 343.89C46.3899 350.03 47.2599 356.2 46.0199 362.53C44.5499 370.08 43.7199 377.77 43.8699 385.47C44.0099 393.28 45.5499 400.67 47.2599 408.24C49.4899 418.12 51.9499 428.17 53.7399 438.24C55.5399 448.35 55.2899 458.37 53.9699 468.53C53.7799 469.99 53.5799 471.44 53.3599 472.9C53.1199 474.52 52.8599 476.14 52.1999 477.63C51.4099 479.43 50.0699 480.92 48.9499 482.55C46.0099 486.81 46.1699 492.7 51.0999 495.38C53.2199 496.53 55.5799 497.3 57.9099 497.97C60.7899 498.79 63.7499 499.33 66.6699 500H68.3699C72.2599 500 74.5299 495.96 74.6299 492.61C74.6899 490.64 74.3199 488.7 74.1299 486.75C73.5699 481.05 74.5499 475.32 74.4399 469.59C74.3499 465.07 73.5799 460.6 72.9599 456.13C72.3399 451.59 72.2299 447.23 72.2799 442.66C72.3599 436.08 72.0999 429.48 72.7699 422.91C73.1099 419.63 73.6899 416.35 74.6599 413.2C75.6299 410.06 75.7799 406.68 76.0299 403.41C76.5999 396.12 75.1099 389.09 73.6299 382.04C72.9699 378.87 72.5299 375.65 71.9799 372.45C70.9699 366.66 73.4599 360.41 74.9199 354.88C77.5299 345.05 78.2999 335.02 79.7399 325C81.2199 314.66 82.9999 304.37 84.2799 293.99C84.7999 289.75 85.2399 285.5 85.5499 281.23C85.8599 276.91 85.8899 272.57 85.9299 268.24C85.9599 264.11 85.5199 259.55 86.5699 255.53C86.6599 255.18 86.9099 254.95 87.2699 254.9C87.6299 254.95 87.8799 255.18 87.9699 255.53C89.0099 259.55 88.5799 264.11 88.6099 268.24C88.6499 272.57 88.6799 276.91 88.9799 281.23C89.2899 285.5 89.7299 289.75 90.2499 293.99C91.5299 304.37 93.3099 314.66 94.7999 325C96.2399 335.02 97.0099 345.05 99.6099 354.88C101.07 360.41 103.56 366.66 102.55 372.45C102 375.65 101.56 378.87 100.9 382.04C99.4199 389.09 97.9299 396.12 98.4999 403.41C98.7499 406.68 98.8999 410.06 99.8699 413.2C100.84 416.35 101.42 419.63 101.76 422.91C102.43 429.48 102.17 436.08 102.25 442.66C102.3 447.23 102.19 451.59 101.57 456.13C100.95 460.6 100.18 465.07 100.09 469.59C99.9799 475.32 100.96 481.05 100.4 486.75C100.21 488.7 99.8399 490.64 99.8999 492.61C99.9999 495.96 102.27 500 106.17 500H107.86C110.78 499.33 113.75 498.79 116.62 497.97C118.95 497.3 121.31 496.53 123.44 495.38C128.36 492.7 128.52 486.81 125.58 482.55C124.46 480.92 123.13 479.43 122.34 477.63C121.68 476.14 121.41 474.52 121.17 472.9C120.95 471.44 120.75 469.99 120.56 468.53C119.24 458.37 118.99 448.35 120.79 438.24C122.59 428.17 125.04 418.12 127.27 408.24C128.98 400.67 130.53 393.28 130.67 385.47C130.82 377.77 129.98 370.08 128.51 362.53C127.27 356.2 128.14 350.03 129.16 343.89C131.01 332.95 133.31 322.09 135.27 311.16C137.49 298.75 138.3 286.23 137.83 273.63C137.55 266.16 137.22 258.68 136.7 251.23C136.12 243.06 134.17 235.17 131.23 227.53C128.37 220.12 126.82 212.43 126.76 204.51C126.69 194.73 126.94 184.95 126.99 175.17C127 172.49 126.89 169.81 126.68 167.13C125.96 158.13 127.89 149.65 131.47 141.47C131.6 141.18 131.79 140.92 132.17 140.29C132.32 141.3 132.41 141.95 132.51 142.61C133.61 149.79 135.95 156.65 138 163.6C140.12 170.72 142.36 177.8 144.13 185C144.96 188.39 144.92 192 145.09 195.51C145.36 201.15 145.2 206.82 145.74 212.42C146.13 216.57 147.22 220.66 148.23 224.72C149.66 230.41 149.53 236.12 148.58 241.81C146.81 252.38 146.85 262.99 147.6 273.62C147.68 274.75 147.78 276.29 149.31 276.26C150.74 276.24 150.61 274.77 150.69 273.72C150.89 271.15 150.99 268.56 151.22 265.98C151.3 265.12 151.65 264.28 151.87 263.43H152.39C152.45 264.48 152.67 265.55 152.54 266.58C151.97 271.16 152.33 275.68 153.07 280.2C153.13 280.61 153.19 281.11 153.45 281.39C153.83 281.8 154.36 282.28 154.86 282.32C155.28 282.35 155.98 281.87 156.14 281.46C156.56 280.39 156.92 279.23 157 278.09C157.26 274.09 157.41 270.1 157.6 266.1C157.62 265.65 157.74 265.21 157.81 264.76C157.96 264.75 158.11 264.74 158.26 264.73C158.38 265.79 158.56 266.84 158.61 267.92C158.84 272.04 159.01 276.17 159.25 280.31C159.3 281.19 159.49 282.08 159.7 282.94C159.95 283.94 160.56 284.61 161.67 284.66C162.87 284.71 163.24 283.77 163.31 282.91C163.64 278.61 163.9 274.29 164.13 269.98C164.21 268.51 164.14 267.02 164.14 265.54C164.29 265.53 164.43 265.51 164.58 265.5C164.85 266.84 165.2 268.18 165.38 269.53C165.8 272.65 166.1 275.78 166.54 278.91C166.67 279.86 166.88 280.89 167.36 281.69C168.18 283.05 169.64 282.91 170.11 281.41C170.54 280 170.83 278.46 170.78 276.99C170.63 272.43 170.27 267.89 170.01 263.33C169.96 262.46 170 261.59 170 260.27C170.13 260.43 170.25 260.59 170.37 260.75C170.9 261.46 171.42 262.26 172.16 262.77C172.49 263 172.87 263.14 173.27 263.17C173.53 263.19 174.46 263.2 174.46 262.84C174.46 261.8 174.54 260.76 174.53 259.72C174.51 258.69 174.31 257.74 174.09 256.75ZM61.8899 89.96C62.3299 89.24 63.0399 88.71 63.7799 88.32C65.5899 87.35 67.6699 87.04 69.5899 86.28C71.8399 85.38 73.7899 83.88 75.5999 82.27C76.1799 81.75 76.7599 81.21 77.4499 80.83C78.1299 80.44 78.9399 80.23 79.6999 80.4C80.8699 80.68 81.2699 81.84 81.6199 82.86C82.2199 84.64 82.6499 86.53 82.4599 88.4C82.2599 90.28 81.3599 92.15 79.7799 93.16C77.7999 94.43 74.6499 94.74 72.3499 94.94C71.7999 94.99 71.2499 95.02 70.6999 95.02C68.4599 95.05 66.1999 94.71 64.0699 94.03C63.1099 93.72 62.0899 93.27 61.6599 92.37C61.2999 91.61 61.4399 90.67 61.8899 89.96ZM23.9899 207.49C23.5299 211.86 22.5399 216.19 21.8099 220.53C21.4099 222.89 21.1099 225.28 20.6399 227.63C20.3799 228.97 19.9699 230.31 19.4099 231.56C18.5399 233.52 17.5499 233.56 16.4099 231.75C16.0499 231.19 15.7399 230.54 15.6199 229.9C14.1799 222.29 12.9899 214.43 12.6299 206.62C12.5199 204.25 12.4899 201.89 12.5399 199.54C12.5799 197.89 12.6699 196.24 12.7999 194.58C13.0599 191.44 12.9099 186.82 16.3199 185.26C20.2499 183.46 23.3199 186.38 24.0299 189.52C24.3799 191.04 24.6199 192.64 24.5899 194.19C24.4999 198.63 24.4599 203.08 23.9899 207.49ZM33.1799 163.32C32.0499 166.45 30.6199 169.53 28.4599 172.07C26.2999 174.6 23.3299 176.56 20.0299 177.01C18.9399 177.16 17.6399 177.04 17.0299 176.13C16.7499 175.71 16.6599 175.19 16.5999 174.69C16.4399 173.29 16.3799 171.89 16.3999 170.48C16.4199 168.43 16.5799 166.37 16.7399 164.33C17.3899 156.11 18.2199 147.64 20.6799 139.65C22.6799 133.13 26.8399 127.23 34.3399 127.16C34.9799 127.16 35.6299 127.22 36.2099 127.49C37.1599 127.94 37.7599 128.91 38.0799 129.91C38.4399 131.08 38.7299 132.48 38.6499 133.71C38.0699 143.52 36.4999 154.06 33.1799 163.32ZM43.9799 112.36C41.4699 114.5 38.7399 116.56 35.5199 117.74C32.2399 118.93 29.5199 118.47 28.2899 114.56C27.8599 113.17 27.7699 111.68 27.5199 110.23C27.6599 107.48 28.1199 104.91 29.2999 102.41C30.4299 99.99 31.5599 97.69 33.4699 95.71C36.1499 92.92 39.4999 91.48 43.0299 90.47C45.1599 89.86 47.5199 89.95 49.7799 89.85C51.8899 89.76 53.7799 90.57 55.4199 91.77C56.6599 92.67 57.7499 93.7 57.6999 95.61C57.6599 97.41 56.7799 98.74 55.9399 100.1C52.8699 105.05 48.3299 108.67 43.9799 112.36ZM69.6399 401.34C68.7999 413.61 66.7799 425.45 68.0099 437.79C68.2599 440.28 68.5999 442.81 68.6699 445.31C68.7399 447.43 68.6199 449.52 68.0999 451.57C67.5799 453.6 66.1399 457.22 63.6699 454.93C61.9599 453.37 60.5199 451.48 59.9999 449.24C58.7899 444.08 57.8399 438.87 56.7999 433.67C55.6099 427.8 54.4699 421.93 53.2399 416.06C52.5199 412.66 51.5499 409.3 50.9099 405.89C50.2799 402.59 49.9499 399.21 49.4299 395.89C48.7299 391.39 48.5799 386.94 49.7099 382.47C50.5899 379.06 53.3799 376.68 57.0599 376.55C61.7999 376.39 64.8999 379.12 66.6399 383.01C69.2799 388.93 70.0699 394.94 69.6399 401.34ZM74.3199 282.09C74.2399 291.06 73.6799 300.02 72.9299 308.95C72.2299 317.28 71.9599 326.04 69.7999 334.15C68.9899 337.15 66.9199 342.6 62.9099 341.75C61.6499 341.48 60.4299 340.79 59.3199 340.08C56.7199 338.41 54.6899 336.17 52.9799 333.61C50.4199 329.75 48.9499 325.43 47.7399 321.03C47.0899 318.69 46.7499 316.26 46.3399 313.86C44.1999 301.12 43.5799 288.22 44.3499 275.36C44.6499 270.41 45.1499 265.46 45.8599 260.53C46.2699 257.63 46.6599 254.09 49.0699 252.18C51.6899 250.1 55.4699 250.54 58.6699 251.46C62.2099 252.47 65.6499 253.97 68.4499 256.36C75.6399 262.54 74.3999 273.59 74.3199 282.09ZM53.2399 159.01C55.6699 156.07 61.9599 163.03 63.0399 164.89C65.6299 169.31 64.8699 174.8 65.3699 179.7C66.2699 188.6 67.0399 198.19 65.9599 207.09C65.8599 207.87 65.7199 208.7 65.1499 209.23C64.4699 209.88 63.3899 209.86 62.4799 209.61C60.0999 208.97 58.1899 207.1 56.9799 204.94C53.5099 198.76 53.4499 190.57 53.0899 183.68C52.8299 178.58 52.6299 173.46 52.3599 168.35C52.3199 167.5 52.1999 166.53 52.1099 165.52C51.9099 163.2 51.8599 160.68 53.2399 159.01ZM84.4299 210.55C84.3299 213.08 83.5299 215.08 80.6399 215.42C76.3899 215.92 70.6699 215.65 69.6999 210.35C69.1299 207.26 69.1699 204.02 69.2999 200.86C69.3699 198.96 71.7799 196.95 73.7399 197.13C75.8299 197.32 77.9699 197.17 80.0799 197.17C82.2899 197.17 83.6499 198.01 84.1099 200.19C84.5199 202.13 84.4399 204.17 84.5799 206.17C84.5299 206.17 84.4899 206.17 84.4399 206.17C84.4399 207.63 84.4899 209.09 84.4399 210.54L84.4299 210.55ZM84.7199 190.31C84.7099 192.31 82.9699 194.49 80.6799 194.37C78.3899 194.25 76.0699 194.35 73.7799 194.34C72.2899 194.33 70.7499 193.5 70.1299 192.12C69.7899 191.37 69.7299 190.52 69.6699 189.7C69.3399 184.69 68.6999 176.83 75.3099 176.08C77.4299 175.84 79.6599 175.6 81.8199 176.51C83.5699 177.25 84.6999 178.52 84.7199 180.44C84.7399 182.04 84.7299 183.63 84.7299 185.23C84.7299 186.92 84.7399 188.62 84.7199 190.31ZM84.6399 166.32C84.4599 168.32 84.0299 170.46 82.5899 171.86C81.1099 173.29 78.9099 173.64 76.8399 173.72C75.3599 173.77 73.8799 173.72 72.4099 173.57C71.6999 173.5 70.9399 173.39 70.3799 172.94C69.6199 172.34 69.3899 171.29 69.2499 170.32C68.8999 168.03 68.7099 165.66 69.3499 163.44C70.0199 161.12 71.5599 159.12 73.3899 157.54C76.2799 155.03 82.0899 150.31 84.0699 156.02C84.7699 158.02 84.9399 160.25 84.8899 162.46C84.8599 163.77 84.7599 165.08 84.6399 166.32ZM84.3099 134.03C83.5099 139.42 81.1399 144 75.4299 145.25C71.5199 146.11 67.4699 146.39 64.4199 146.8C60.6599 146.49 57.8499 146.43 55.1099 145.99C48.3799 144.91 48.6099 136 49.0499 130.66C49.8099 121.42 58.1799 114.76 65.6899 110.53C72.0399 106.95 82.4599 104.31 84.0799 114.08C85.1699 120.67 85.2899 127.42 84.3099 134.03ZM92.9099 82.86C93.2599 81.84 93.6599 80.68 94.8399 80.4C95.5999 80.23 96.4099 80.44 97.0899 80.83C97.7699 81.21 98.3499 81.75 98.9299 82.27C100.74 83.88 102.69 85.38 104.95 86.28C106.86 87.04 108.94 87.35 110.75 88.32C111.49 88.71 112.2 89.24 112.65 89.96C113.1 90.67 113.24 91.61 112.88 92.37C112.44 93.27 111.42 93.72 110.46 94.03C108.33 94.71 106.08 95.05 103.84 95.02C103.28 95.02 102.73 94.99 102.18 94.94C99.8799 94.74 96.7399 94.43 94.7499 93.16C93.1699 92.15 92.2699 90.28 92.0699 88.4C91.8799 86.53 92.3099 84.64 92.9099 82.86ZM90.4499 114.08C92.0699 104.31 102.49 106.95 108.84 110.53C116.35 114.76 124.72 121.42 125.48 130.66C125.92 136 126.15 144.91 119.42 145.99C116.68 146.43 113.88 146.49 110.11 146.8C107.06 146.39 103.01 146.11 99.0999 145.25C93.3899 144 91.0199 139.42 90.2199 134.03C89.2399 127.42 89.3599 120.67 90.4499 114.08ZM122.43 165.52C122.34 166.53 122.22 167.5 122.18 168.35C121.91 173.46 121.71 178.58 121.44 183.68C121.08 190.57 121.02 198.76 117.55 204.94C116.34 207.1 114.44 208.97 112.05 209.61C111.14 209.86 110.06 209.88 109.38 209.23C108.81 208.7 108.67 207.87 108.57 207.09C107.49 198.19 108.26 188.6 109.16 179.7C109.66 174.8 108.9 169.31 111.49 164.89C112.57 163.03 118.86 156.07 121.29 159.01C122.68 160.68 122.63 163.2 122.43 165.52ZM90.4599 156.02C92.4399 150.31 98.2499 155.03 101.14 157.54C102.97 159.12 104.52 161.12 105.19 163.44C105.83 165.66 105.64 168.03 105.29 170.32C105.15 171.29 104.92 172.34 104.16 172.94C103.59 173.39 102.83 173.5 102.12 173.57C100.65 173.72 99.1699 173.77 97.6899 173.72C95.6299 173.64 93.4199 173.29 91.9399 171.86C90.4999 170.46 90.0699 168.32 89.8899 166.32C89.7699 165.08 89.6699 163.77 89.6399 162.46C89.5899 160.25 89.7599 158.02 90.4599 156.02ZM89.7999 185.23C89.7999 183.63 89.7899 182.04 89.8099 180.44C89.8299 178.52 90.9599 177.25 92.7099 176.51C94.8799 175.6 97.1099 175.84 99.2199 176.08C105.84 176.83 105.2 184.69 104.87 189.7C104.81 190.52 104.75 191.37 104.41 192.12C103.79 193.5 102.24 194.33 100.75 194.34C98.4599 194.35 96.1499 194.25 93.8499 194.37C91.5599 194.49 89.8199 192.31 89.8099 190.31C89.7899 188.62 89.7999 186.92 89.7999 185.23ZM93.8899 215.42C90.9999 215.08 90.1999 213.08 90.0999 210.55C90.0399 209.1 90.0899 207.64 90.0899 206.18C90.0399 206.18 89.9999 206.18 89.9499 206.18C90.0899 204.18 90.0099 202.14 90.4199 200.2C90.8799 198.02 92.2399 197.19 94.4499 197.18C96.5699 197.18 98.6999 197.33 100.79 197.14C102.75 196.96 105.17 198.97 105.24 200.87C105.37 204.03 105.41 207.27 104.84 210.36C103.87 215.66 98.1399 215.93 93.8899 215.43V215.42ZM125.1 395.89C124.58 399.21 124.26 402.59 123.63 405.89C122.99 409.3 122.02 412.66 121.29 416.06C120.06 421.93 118.92 427.8 117.73 433.67C116.69 438.87 115.74 444.08 114.54 449.24C114.02 451.48 112.57 453.37 110.86 454.93C108.39 457.22 106.95 453.6 106.44 451.57C105.92 449.52 105.8 447.43 105.87 445.31C105.94 442.81 106.28 440.28 106.53 437.79C107.75 425.45 105.74 413.61 104.9 401.34C104.47 394.94 105.26 388.93 107.89 383.01C109.63 379.12 112.74 376.39 117.47 376.55C121.15 376.68 123.95 379.06 124.82 382.47C125.95 386.94 125.8 391.39 125.1 395.89ZM128.67 260.53C129.38 265.46 129.88 270.41 130.18 275.36C130.96 288.22 130.33 301.12 128.19 313.86C127.78 316.26 127.44 318.69 126.79 321.03C125.58 325.43 124.12 329.75 121.56 333.61C119.84 336.17 117.81 338.41 115.22 340.08C114.11 340.79 112.89 341.48 111.62 341.75C107.61 342.6 105.55 337.15 104.74 334.15C102.57 326.04 102.3 317.28 101.6 308.95C100.85 300.02 100.29 291.06 100.21 282.09C100.13 273.59 98.8899 262.54 106.09 256.36C108.88 253.97 112.32 252.47 115.86 251.46C119.06 250.54 122.85 250.1 125.46 252.18C127.87 254.09 128.26 257.63 128.67 260.53ZM130.56 112.36C126.2 108.67 121.67 105.05 118.59 100.1C117.75 98.74 116.87 97.41 116.83 95.61C116.78 93.7 117.87 92.67 119.11 91.77C120.75 90.57 122.65 89.76 124.75 89.85C127.01 89.95 129.37 89.86 131.51 90.47C135.03 91.48 138.38 92.92 141.07 95.71C142.97 97.69 144.1 99.99 145.23 102.41C146.41 104.91 146.87 107.48 147.01 110.23C146.76 111.68 146.67 113.17 146.24 114.56C145.01 118.47 142.29 118.93 139.01 117.74C135.79 116.56 133.07 114.5 130.56 112.36ZM146.07 172.07C143.91 169.53 142.48 166.45 141.36 163.32C138.03 154.06 136.46 143.52 135.88 133.71C135.8 132.48 136.09 131.08 136.45 129.91C136.77 128.91 137.37 127.94 138.32 127.49C138.9 127.22 139.56 127.16 140.2 127.16C147.69 127.23 151.85 133.13 153.85 139.65C156.31 147.64 157.14 156.11 157.8 164.33C157.96 166.37 158.12 168.43 158.14 170.48C158.16 171.89 158.1 173.29 157.94 174.69C157.88 175.19 157.79 175.71 157.51 176.13C156.89 177.04 155.59 177.16 154.5 177.01C151.2 176.56 148.23 174.6 146.07 172.07ZM161.9 206.62C161.54 214.43 160.35 222.29 158.92 229.9C158.8 230.54 158.49 231.19 158.13 231.75C156.98 233.56 155.99 233.52 155.12 231.56C154.56 230.31 154.15 228.97 153.89 227.63C153.42 225.28 153.12 222.89 152.72 220.53C151.99 216.19 151.01 211.86 150.55 207.49C150.08 203.08 150.04 198.63 149.95 194.19C149.92 192.64 150.16 191.04 150.51 189.52C151.22 186.38 154.28 183.46 158.22 185.26C161.62 186.82 161.47 191.44 161.73 194.58C161.86 196.24 161.95 197.89 161.99 199.54C162.04 201.89 162.01 204.25 161.9 206.62Z"
       fill="#E0E0E0"
       class="body" />
  </g>
  <defs
     id="defs1">
    <clipPath
       id="clip0_687_144">
      <rect
         width="174.53"
         height="500"
         fill="white"
         id="rect1" />
    </clipPath>
  </defs>
</svg>
