<?xml version="1.0" encoding="UTF-8" standalone="no"?>
<svg
   width="175"
   height="500"
   viewBox="0 0 175 500"
   fill="none"
   version="1.1"
   id="svg1"
   sodipodi:docname="body_back.svg"
   inkscape:version="1.3.2 (091e20e, 2023-11-25)"
   xmlns:inkscape="http://www.inkscape.org/namespaces/inkscape"
   xmlns:sodipodi="http://sodipodi.sourceforge.net/DTD/sodipodi-0.dtd"
   xmlns="http://www.w3.org/2000/svg"
   xmlns:svg="http://www.w3.org/2000/svg">
  <sodipodi:namedview
     id="namedview1"
     pagecolor="#ffffff"
     bordercolor="#000000"
     borderopacity="0.25"
     inkscape:showpageshadow="2"
     inkscape:pageopacity="0.0"
     inkscape:pagecheckerboard="0"
     inkscape:deskcolor="#d1d1d1"
     inkscape:zoom="1.768"
     inkscape:cx="87.386878"
     inkscape:cy="250"
     inkscape:window-width="1392"
     inkscape:window-height="1027"
     inkscape:window-x="0"
     inkscape:window-y="25"
     inkscape:window-maximized="0"
     inkscape:current-layer="calves" />
  <g
     id="body_back"
     clip-path="url(#clip0_696_98)">
    <path
       id="Vector"
       d="M174.943 260.995C174.943 260.745 174.903 260.485 174.853 260.235C174.513 258.595 174.203 256.935 173.823 255.295C172.923 251.535 171.753 247.845 169.203 244.845C165.643 240.665 164.643 235.475 164.563 230.085C164.503 226.175 164.933 222.294 165.193 218.394C165.743 210.264 165.583 202.084 164.723 193.964C163.893 186.104 161.983 178.434 160.913 170.603C159.983 163.773 159.383 156.913 158.663 150.053C158.073 144.513 157.583 138.963 156.933 133.433C156.323 128.263 155.663 123.092 154.843 117.962C154.133 113.522 153.343 109.082 152.283 104.712C150.793 98.562 147.573 93.3319 142.893 89.0618C139.543 85.9817 135.833 83.3817 131.173 82.8617C127.503 82.4417 123.792 82.3416 120.102 82.1816C117.092 82.0516 114.112 81.8416 111.212 80.9416C106.692 79.5316 103.722 75.7015 104.042 70.8914C104.242 67.9014 104.402 64.9013 104.732 61.9112C105.132 58.1112 106.022 54.4211 107.912 51.031C111.732 44.1609 113.302 36.7307 113.732 28.9506C114.042 23.6005 113.022 18.5804 110.262 13.9903C105.902 6.72013 99.592 2.22004 91.2118 0.49001C89.9418 0.220004 88.7018 0.0600012 87.4717 0C86.2317 0.0600012 84.9917 0.220004 83.7217 0.49001C75.3415 2.22004 69.0314 6.72013 64.6713 13.9903C61.9212 18.5804 60.8912 23.6005 61.2012 28.9506C61.6312 36.7307 63.2012 44.1609 67.0313 51.031C68.9114 54.4211 69.8014 58.1112 70.2114 61.9112C70.5314 64.9013 70.6914 67.9014 70.8914 70.8914C71.2114 75.7015 68.2413 79.5316 63.7213 80.9416C60.8212 81.8416 57.8511 82.0516 54.8311 82.1816C51.141 82.3416 47.4309 82.4417 43.7709 82.8617C39.1008 83.3817 35.4007 85.9817 32.0406 89.0618C27.3605 93.3319 24.1405 98.562 22.6504 104.712C21.5904 109.082 20.8004 113.522 20.0904 117.962C19.2704 123.092 18.6104 128.263 18.0103 133.433C17.3503 138.963 16.8603 144.513 16.2703 150.053C15.5603 156.913 14.9603 163.773 14.0203 170.603C12.9602 178.434 11.0502 186.104 10.2102 193.964C9.35017 202.084 9.20016 210.264 9.74017 218.394C10.0102 222.294 10.4302 226.175 10.3802 230.085C10.3002 235.475 9.29016 240.665 5.73009 244.845C3.19004 247.845 2.01002 251.535 1.12 255.295C0.729992 256.935 0.419986 258.595 0.0899795 260.235C0.0299783 260.485 -2.23216e-05 260.745 -2.23216e-05 260.995C-2.23216e-05 261.855 -0.0700237 262.825 0.859995 263.195C1.80001 263.555 2.65003 262.985 3.28004 262.295C3.79005 261.745 4.17006 261.085 4.61007 260.475C4.71007 260.495 4.82007 260.525 4.92008 260.535C4.82007 262.565 4.69007 264.585 4.61007 266.605C4.41007 270.965 3.55005 275.286 4.21006 279.656C4.32006 280.406 4.53007 281.166 4.86008 281.836C5.35008 282.846 6.67011 282.976 7.27012 282.026C7.75013 281.266 8.06014 280.316 8.20014 279.416C8.87016 275.036 9.45017 270.645 10.0702 266.255C10.1002 266.035 10.2302 265.825 10.5702 265.615C10.6102 265.905 10.7102 266.195 10.7002 266.485C10.6502 268.205 10.5402 269.925 10.5202 271.645C10.5002 272.475 10.5802 273.325 10.6502 274.155C10.8402 276.756 11.0502 279.346 11.2702 281.936C11.3102 282.406 11.4902 282.856 11.6002 283.316C11.7902 284.066 12.0102 284.696 12.9902 284.706C14.0403 284.726 14.7403 284.236 14.9603 283.306C15.2903 281.966 15.5503 280.586 15.6403 279.196C15.9303 274.846 16.1103 270.495 16.3603 266.145C16.3803 265.695 16.5203 265.265 16.6003 264.825C16.7203 264.815 16.8303 264.815 16.9403 264.815C17.0303 265.145 17.1703 265.485 17.1903 265.825C17.4203 270.145 17.6003 274.455 17.8603 278.776C17.9003 279.596 18.2103 280.406 18.4503 281.206C18.6804 281.976 19.1704 282.526 20.0304 282.456C20.9704 282.376 21.4604 281.706 21.5704 280.846C21.9004 278.376 22.2804 275.916 22.4204 273.435C22.5404 271.475 22.3304 269.495 22.2904 267.515C22.2604 266.155 22.2904 264.775 22.2904 263.415C22.4904 263.385 22.6904 263.355 22.9004 263.335C23.1804 264.495 23.5904 265.645 23.7105 266.825C23.9105 269.125 23.9305 271.435 24.0705 273.735C24.1105 274.386 24.2405 275.056 24.4805 275.656C24.8405 276.566 25.9105 276.676 26.4605 275.866C26.7705 275.436 27.0805 274.896 27.1005 274.385C27.3105 267.795 27.7505 261.195 27.5505 254.615C27.3905 249.285 26.4405 243.985 25.8205 238.675C25.2105 233.485 25.6005 228.385 26.9305 223.304C28.3105 218.074 29.4906 212.764 29.6106 207.314C29.7106 203.454 29.5906 199.604 29.6606 195.754C29.7506 191.244 29.9206 186.714 31.1306 182.344C32.6406 176.964 34.3707 171.633 35.9807 166.273C37.3507 161.733 38.8208 157.203 40.0208 152.613C41.0008 148.903 41.6408 145.103 42.4508 141.353C42.5108 141.073 42.5908 140.803 42.6608 140.533C42.7608 140.503 42.8608 140.483 42.9608 140.463C44.7409 145.153 46.5409 149.593 47.3509 154.583C48.1509 159.453 48.2509 164.483 48.0609 169.403C47.8509 174.463 48.2509 179.554 48.3109 184.634C48.4209 194.044 48.5109 203.474 47.3509 212.844C46.2209 222.034 42.2608 230.565 40.0608 239.515C37.7507 248.895 37.2307 258.925 36.9007 268.585C36.5207 279.786 36.8207 291.136 38.2907 302.266C39.7808 313.726 42.2608 325.037 44.3609 336.397C44.6209 337.837 44.8809 339.257 45.1209 340.697C46.2309 347.097 47.1709 353.617 46.6009 360.107C46.0309 366.547 44.8409 372.927 44.4409 379.398C44.1409 384.288 44.3209 389.218 44.5509 394.118C44.6709 396.358 45.3609 398.568 45.8609 400.778C47.4609 407.808 49.101 414.828 50.681 421.848C51.871 427.099 53.191 432.359 54.1811 437.639C55.1911 442.989 55.4211 448.569 55.6111 453.999C55.6811 456.259 55.7111 458.529 55.4611 460.779C55.1211 463.649 54.3511 466.399 54.1311 469.309C53.8911 472.399 53.6911 475.6 52.181 478.38C51.331 479.93 50.131 481.25 49.111 482.71C47.4709 485.08 46.8109 488 47.5509 490.84C48.3209 493.8 50.591 495.38 53.261 496.47C57.4411 498.17 61.8512 499.12 66.2813 499.89C69.6114 500.48 73.6515 498.75 74.6615 495.3C75.0315 494.04 74.9215 492.7 74.8115 491.4C74.5815 488.53 74.3315 485.66 74.2815 482.78C74.1415 476.36 74.9815 469.919 74.4215 463.519C73.8515 457.129 72.3914 451.079 72.4414 444.639C72.5014 438.659 72.5614 432.689 72.6814 426.719C72.7414 423.998 72.9014 421.458 73.6115 418.838C74.3015 416.238 75.2415 413.688 75.6315 411.018C76.4415 405.348 76.3915 399.528 76.0315 393.818C75.8515 390.778 74.9615 387.768 74.4315 384.738C73.4814 379.398 71.9214 373.958 72.2514 368.457C72.6614 361.587 75.4515 354.897 76.8815 348.207C77.6515 344.527 78.0015 340.757 78.4515 337.027C78.9716 332.737 79.3316 328.427 79.8816 324.136C80.4816 319.446 81.1416 314.766 81.9116 310.096C82.7316 305.116 83.6517 300.156 84.6117 295.196C85.6017 290.076 86.2217 284.926 86.1017 279.686C85.9817 273.965 86.0217 268.235 86.1017 262.515C86.1317 260.445 86.4417 258.365 86.6717 256.295C86.7317 255.835 87.0317 255.415 87.2017 254.975H87.7317C87.9117 255.415 88.2117 255.835 88.2617 256.295C88.5018 258.365 88.8118 260.445 88.8318 262.515C88.9118 268.235 88.9618 273.965 88.8318 279.686C88.7218 284.926 89.3318 290.076 90.3218 295.196C91.2818 300.156 92.2118 305.116 93.0318 310.096C93.7919 314.766 94.4519 319.446 95.0519 324.136C95.6019 328.427 95.9619 332.737 96.4819 337.027C96.9319 340.757 97.2819 344.527 98.0619 348.207C99.482 354.897 102.282 361.587 102.682 368.457C103.012 373.958 101.462 379.398 100.512 384.738C99.972 387.768 99.092 390.778 98.902 393.818C98.542 399.528 98.4919 405.348 99.312 411.018C99.692 413.688 100.632 416.238 101.322 418.838C102.032 421.458 102.202 423.998 102.252 426.719C102.372 432.689 102.432 438.659 102.492 444.639C102.542 451.079 101.082 457.129 100.512 463.519C99.952 469.919 100.792 476.36 100.662 482.78C100.602 485.66 100.362 488.53 100.122 491.4C100.012 492.7 99.912 494.04 100.282 495.3C101.282 498.75 105.322 500.48 108.652 499.89C113.092 499.12 117.492 498.17 121.682 496.47C124.342 495.38 126.613 493.8 127.393 490.84C128.133 488 127.473 485.08 125.822 482.71C124.802 481.25 123.602 479.93 122.752 478.38C121.242 475.6 121.042 472.399 120.802 469.309C120.582 466.399 119.812 463.649 119.472 460.779C119.222 458.529 119.252 456.259 119.322 453.999C119.512 448.569 119.742 442.989 120.752 437.639C121.752 432.359 123.062 427.099 124.252 421.848C125.842 414.828 127.473 407.808 129.073 400.778C129.573 398.568 130.273 396.358 130.383 394.118C130.613 389.218 130.803 384.288 130.503 379.398C130.093 372.927 128.903 366.547 128.343 360.107C127.763 353.617 128.703 347.097 129.813 340.697C130.063 339.257 130.313 337.837 130.583 336.397C132.673 325.037 135.153 313.726 136.653 302.266C138.113 291.136 138.413 279.786 138.033 268.585C137.703 258.925 137.183 248.895 134.873 239.515C132.673 230.565 128.723 222.034 127.583 212.844C126.433 203.474 126.513 194.044 126.623 184.634C126.683 179.554 127.083 174.463 126.873 169.403C126.683 164.483 126.793 159.453 127.583 154.583C128.393 149.593 130.203 145.153 131.983 140.463C132.073 140.483 132.173 140.503 132.283 140.533C132.353 140.803 132.433 141.073 132.493 141.353C133.293 145.103 133.933 148.903 134.913 152.613C136.123 157.203 137.583 161.733 138.953 166.273C140.573 171.633 142.293 176.964 143.803 182.344C145.023 186.714 145.183 191.244 145.273 195.754C145.343 199.604 145.233 203.454 145.323 207.314C145.453 212.764 146.623 218.074 148.003 223.304C149.333 228.385 149.723 233.485 149.113 238.675C148.503 243.985 147.543 249.285 147.393 254.615C147.183 261.195 147.623 267.795 147.833 274.385C147.853 274.896 148.163 275.436 148.473 275.866C149.023 276.676 150.093 276.566 150.453 275.656C150.693 275.056 150.823 274.386 150.873 273.735C151.013 271.435 151.023 269.125 151.233 266.825C151.343 265.645 151.763 264.495 152.043 263.335C152.243 263.355 152.443 263.385 152.643 263.415C152.643 264.775 152.673 266.155 152.643 267.515C152.603 269.495 152.393 271.475 152.513 273.435C152.653 275.916 153.033 278.376 153.363 280.846C153.473 281.706 153.963 282.376 154.903 282.456C155.763 282.526 156.263 281.976 156.493 281.206C156.723 280.406 157.033 279.596 157.083 278.776C157.333 274.455 157.523 270.145 157.753 265.825C157.763 265.485 157.903 265.145 157.993 264.815C158.103 264.815 158.213 264.815 158.333 264.825C158.423 265.265 158.563 265.695 158.573 266.145C158.823 270.495 159.013 274.846 159.303 279.196C159.383 280.586 159.643 281.966 159.983 283.306C160.203 284.236 160.893 284.726 161.943 284.706C162.933 284.706 163.153 284.066 163.333 283.316C163.453 282.856 163.623 282.406 163.663 281.936C163.893 279.346 164.093 276.756 164.283 274.155C164.353 273.325 164.433 272.475 164.423 271.645C164.393 269.925 164.283 268.205 164.233 266.485C164.223 266.195 164.323 265.905 164.363 265.615C164.703 265.825 164.833 266.035 164.863 266.255C165.483 270.645 166.063 275.036 166.733 279.416C166.873 280.316 167.183 281.266 167.673 282.026C168.273 282.976 169.583 282.846 170.073 281.836C170.403 281.166 170.613 280.406 170.723 279.656C171.383 275.286 170.523 270.965 170.333 266.605C170.243 264.585 170.123 262.565 170.013 260.535C170.123 260.525 170.223 260.495 170.333 260.475C170.763 261.085 171.143 261.745 171.653 262.295C172.283 262.985 173.133 263.555 174.073 263.195C175.013 262.825 174.943 261.855 174.943 260.995ZM90.3718 64.4813C91.6618 65.2813 92.3818 66.7513 92.7318 68.2214C93.0918 69.6914 93.1318 71.2314 93.3818 72.7215C93.7019 74.7415 94.4219 76.6815 95.1319 78.6016C95.4619 79.4816 95.7919 80.3916 96.4319 81.0916C97.8419 82.6617 100.212 82.7317 102.062 83.5317C103.912 84.3317 105.532 85.5617 106.742 87.1717C107.472 88.1418 107.102 90.3518 106.262 91.4518C105.162 92.9219 104.072 94.4419 103.202 96.0519C101.922 98.452 100.742 100.922 99.702 103.422C98.752 105.692 98.1719 108.112 97.2019 110.362C96.3319 112.372 95.7619 114.642 93.7119 115.932C93.4918 116.062 92.9718 116.052 92.8318 115.902C92.3518 115.362 91.7718 114.782 91.6018 114.112C91.1718 112.462 91.0318 110.732 90.6118 109.082C89.8518 106.142 90.0118 103.162 89.9718 100.182C89.9118 95.8619 90.0918 91.5218 89.6818 87.2318C89.2718 83.1217 89.4218 79.0216 89.3118 74.9215C89.2518 72.9215 89.0718 70.9114 89.1218 68.9114C89.1618 67.3114 89.3318 65.7613 90.3718 64.4813ZM104.062 141.523C105.942 140.573 108.122 140.563 110.182 140.663C114.062 140.853 118.182 141.533 121.112 144.103C121.982 144.853 122.732 145.783 123.032 146.893C123.322 147.963 123.172 149.093 123.042 150.193C122.682 153.273 122.472 156.353 122.322 159.443C122.062 165.163 121.832 170.883 121.472 176.604C121.242 180.134 121.122 183.774 120.562 187.274C120.002 190.724 119.842 194.234 119.112 197.664C118.402 201.054 117.282 204.394 115.472 207.344C115.172 207.834 114.812 208.354 114.282 208.594C113.652 208.854 112.942 208.694 112.302 208.464C110.472 207.784 108.912 206.544 107.402 205.304C104.222 202.754 101.052 200.184 97.8819 197.624C95.4019 195.634 92.3218 193.404 91.3218 190.224C91.0318 189.304 90.8118 188.344 90.6418 187.394C90.3818 185.954 90.2118 184.594 90.1818 183.194C90.1718 182.554 90.1918 181.884 90.2418 181.214C90.3618 179.734 90.5118 178.254 90.6118 176.774C90.7518 174.664 91.3018 172.503 91.6418 170.423C92.0018 168.253 92.3718 166.103 92.7918 163.953C93.6219 159.663 94.6719 155.413 96.2619 151.343C97.0819 149.273 98.0419 147.223 99.392 145.453C100.622 143.833 102.222 142.423 104.062 141.523ZM68.1913 87.1717C69.4014 85.5617 71.0314 84.3317 72.8814 83.5317C74.7315 82.7317 77.0915 82.6617 78.5116 81.0916C79.1416 80.3916 79.4816 79.4816 79.8016 78.6016C80.5116 76.6815 81.2316 74.7415 81.5516 72.7215C81.8016 71.2314 81.8516 69.6914 82.2016 68.2214C82.5516 66.7513 83.2716 65.2813 84.5617 64.4813C85.6117 65.7613 85.7717 67.3114 85.8117 68.9114C85.8617 70.9114 85.6817 72.9215 85.6217 74.9215C85.5117 79.0216 85.6617 83.1217 85.2517 87.2318C84.8417 91.5218 85.0317 95.8619 84.9617 100.182C84.9217 103.162 85.0817 106.142 84.3217 109.082C83.9017 110.732 83.7717 112.462 83.3316 114.112C83.1616 114.782 82.5916 115.362 82.1016 115.902C81.9616 116.052 81.4416 116.062 81.2216 115.932C79.1816 114.642 78.6016 112.372 77.7315 110.362C76.7615 108.112 76.1815 105.692 75.2315 103.422C74.1915 100.922 73.0114 98.452 71.7314 96.0519C70.8614 94.4419 69.7714 92.9219 68.6714 91.4518C67.8413 90.3518 67.4713 88.1418 68.1913 87.1717ZM84.7517 183.194C84.7317 184.594 84.5517 185.954 84.2917 187.394C84.1217 188.344 83.9117 189.304 83.6217 190.224C82.6116 193.404 79.5316 195.634 77.0515 197.624C73.8815 200.184 70.7114 202.754 67.5413 205.304C66.0213 206.544 64.4613 207.784 62.6312 208.464C62.0012 208.694 61.2812 208.854 60.6612 208.594C60.1212 208.354 59.7712 207.834 59.4612 207.344C57.6511 204.394 56.5311 201.054 55.8211 197.664C55.0911 194.234 54.9311 190.724 54.3711 187.274C53.8111 183.774 53.6911 180.134 53.471 176.604C53.111 170.883 52.881 165.163 52.611 159.443C52.461 156.353 52.251 153.273 51.891 150.193C51.761 149.093 51.611 147.963 51.901 146.893C52.211 145.783 52.961 144.853 53.8211 144.103C56.7511 141.533 60.8712 140.853 64.7513 140.663C66.8113 140.563 68.9914 140.573 70.8814 141.523C72.7114 142.423 74.3115 143.833 75.5515 145.453C76.8915 147.223 77.8515 149.273 78.6716 151.343C80.2616 155.413 81.3116 159.663 82.1416 163.953C82.5616 166.103 82.9316 168.253 83.2916 170.423C83.6317 172.503 84.1817 174.664 84.3217 176.774C84.4217 178.254 84.5717 179.734 84.6917 181.214C84.7417 181.884 84.7617 182.554 84.7517 183.194ZM25.8205 197.734C25.8205 197.854 25.8005 197.984 25.8005 198.104C25.4005 206.964 24.2305 215.794 22.0104 224.364C21.5604 226.095 20.0604 234.245 17.3203 233.755C16.5803 233.625 16.1703 232.835 15.9203 232.125C14.6603 228.605 14.3803 224.815 14.1103 221.074C13.4502 211.914 12.8002 202.684 13.9403 193.564C14.0803 192.504 14.2803 191.364 15.0503 190.624C15.5703 190.114 16.3103 189.874 17.0403 189.724C20.1804 189.044 24.1705 189.574 25.3905 192.994C25.9305 194.494 25.8805 196.134 25.8205 197.734ZM40.3008 132.563C40.0808 134.103 39.8608 135.633 39.6208 137.163C39.5308 137.743 39.4408 138.303 39.3208 138.863C38.9208 140.663 38.4607 142.443 38.1107 144.243C37.7607 146.043 37.5007 147.873 37.2007 149.673C37.1207 150.183 37.1007 150.693 36.9707 151.173C36.5607 152.813 36.1107 154.453 35.6907 156.093C35.2407 157.823 34.7907 159.573 34.3707 161.323C33.5406 164.713 32.1506 167.893 30.1406 170.733C29.0406 172.283 27.9205 173.823 26.1505 174.884C23.9005 176.214 21.6204 176.964 19.0304 176.994C17.9303 177.014 17.2903 176.594 17.1303 175.504C16.9603 174.253 16.8103 172.993 16.6903 172.113C16.8103 170.423 16.8603 169.113 16.9803 167.813C17.1903 165.693 17.4603 163.573 17.7003 161.453C17.7703 160.773 17.7503 160.073 17.8903 159.403C18.2103 157.843 18.6404 156.313 18.9504 154.763C19.2804 153.103 19.5004 151.423 19.8404 149.763C20.3204 147.453 20.8404 145.153 21.3804 142.863C21.8704 140.783 22.4904 138.713 22.9004 136.623C23.4904 133.633 25.6705 132.043 27.9705 130.523C29.0206 129.823 30.1206 129.223 31.1406 128.503C33.0506 127.153 34.6907 125.423 37.0407 124.752C37.9807 124.492 39.1408 124.812 39.6608 125.673C40.3608 126.813 40.8108 128.043 40.7308 129.393C40.6608 130.463 40.4508 131.513 40.3008 132.563ZM40.8408 113.362C39.4908 114.532 38.2107 115.802 36.7607 116.832C34.8607 118.182 32.8406 119.352 30.8506 120.562C29.7406 121.242 28.6005 121.932 27.2305 121.692C26.7905 121.612 26.3405 121.302 25.9905 121.002C24.7505 119.892 25.2005 118.382 24.8805 116.962C25.1805 115.222 25.4405 113.472 25.7905 111.742C26.0505 110.452 26.3005 109.152 26.7505 107.922C27.6805 105.402 28.6206 102.872 29.7806 100.452C31.1206 97.622 32.7606 94.9919 34.9707 92.6919C37.2607 90.2918 39.8608 88.5418 43.0308 87.6618C44.6909 87.2018 46.3709 86.7317 48.0809 86.5117C50.701 86.1917 53.241 86.7417 55.7311 87.5918C57.6711 88.2518 59.7812 91.0818 59.9112 93.0419C60.0412 95.0019 58.9712 96.4019 57.8711 97.682C56.5011 99.292 54.8611 100.682 53.291 102.112C51.081 104.122 48.821 106.102 46.6009 108.102C46.0509 108.582 45.5709 109.152 45.0309 109.642C43.6408 110.892 42.2408 112.122 40.8408 113.362ZM45.3209 133.863C45.7809 132.283 45.9709 130.543 46.7709 129.163C48.861 125.603 51.191 122.172 53.481 118.712C55.5011 115.672 57.5611 112.662 59.6612 109.672C60.5512 108.422 61.6312 107.352 62.9612 106.502C64.7413 105.362 66.6613 105.652 68.0513 107.362C69.3014 108.922 70.3214 110.692 71.2814 112.462C71.9614 113.732 72.3114 115.162 72.9014 116.492C74.0715 119.082 74.7615 121.772 74.8415 124.622C74.8515 125.053 74.8915 125.503 74.8315 125.933C74.6115 127.593 74.0215 129.093 72.4414 129.843C70.6914 130.673 68.8914 131.403 67.0713 132.033C65.2613 132.643 63.4112 133.093 61.5612 133.603C58.7512 134.343 55.9511 135.083 53.131 135.813C51.851 136.143 50.551 136.423 49.261 136.713C46.6609 137.293 45.5809 136.473 45.3209 133.863ZM71.3014 410.588C70.9114 412.798 70.4214 414.978 70.0114 417.168C69.6914 418.938 69.4114 420.718 69.1214 422.498C68.0213 429.259 68.0713 436.169 68.4814 443.009C68.6414 445.579 68.8714 448.149 68.6914 450.719C68.4914 453.659 67.9313 456.769 66.3413 459.299C66.1213 459.629 65.8613 459.969 65.4813 460.099C65.1713 460.189 64.8113 460.109 64.5113 459.979C58.1711 457.389 58.2711 446.899 57.9011 441.349C57.8311 440.269 57.7911 439.169 57.6411 438.099C55.9611 426.189 53.421 414.368 51.961 402.398C51.631 399.728 51.351 397.018 51.371 394.338C51.381 392.298 51.561 390.278 52.031 388.298C52.481 386.388 53.211 384.508 54.5011 383.028C56.2211 381.038 58.4711 380.538 61.0012 380.628C62.8512 380.698 64.4713 381.278 65.8613 382.398C68.1413 384.218 69.5814 386.658 70.4114 389.408C71.0814 391.668 71.7914 393.988 71.9114 396.308C72.1614 401.068 72.1314 405.858 71.3014 410.588ZM73.6215 297.666C73.2314 305.456 73.3214 313.266 72.8414 321.036C72.3614 329.077 71.2114 337.057 69.6114 344.947C68.8014 348.957 67.8513 352.967 66.4213 356.817C64.6713 361.527 61.1012 369.857 55.5111 363.257C49.421 356.067 50.221 344.877 49.001 336.137C47.4909 325.447 46.0509 314.726 45.7209 303.926C45.6809 302.546 45.6609 301.156 45.6609 299.766C45.6609 297.196 45.7509 294.626 45.9309 292.076C46.0909 289.826 46.0909 287.256 47.2409 285.246C47.9509 284.006 49.091 283.066 50.341 282.386C51.851 281.576 53.531 281.106 55.2011 280.756C58.5111 280.086 61.9512 279.726 65.2113 280.566C73.2614 282.636 73.9715 290.676 73.6215 297.666ZM78.9516 250.055C78.7416 257.365 79.5316 268.605 71.9314 272.655C67.1213 275.216 60.9412 274.995 55.6511 274.935C52.631 274.895 49.201 274.936 46.4509 273.485C44.0009 272.195 43.2508 269.785 42.9308 267.195C42.6008 264.405 42.5808 261.595 42.6008 258.785V257.865C42.6208 254.215 42.6508 250.555 43.1008 246.925C43.3708 244.755 43.8109 242.575 44.7409 240.585C45.7809 238.395 47.3909 236.985 49.471 235.795C51.631 234.575 53.9611 233.655 56.4211 233.625C60.0012 233.585 63.6113 233.275 67.1913 234.155C71.2614 235.155 75.4815 235.985 77.6215 240.015C79.2116 243.045 79.0416 246.645 78.9516 250.055ZM94.7819 225.905C92.8518 226.375 90.9118 226.985 88.9218 227.105C88.4417 227.135 87.9417 227.135 87.4717 227.135C87.0017 227.135 86.5017 227.135 86.0117 227.105C84.0217 226.985 82.0816 226.375 80.1516 225.905C77.5215 225.275 74.8315 224.855 72.1314 224.695C71.7514 224.675 71.3714 224.654 70.9814 224.644C69.5614 224.594 68.2513 224.674 66.8813 224.314C65.5613 223.964 64.3313 223.384 63.2412 222.594C61.9612 221.664 60.7912 220.754 61.0112 218.984C61.0812 218.394 61.4112 217.824 61.6612 217.274C62.3012 215.804 63.3112 214.574 64.7813 214.024C67.2013 213.114 69.7114 212.424 72.2014 211.674C76.2915 210.454 80.4116 209.534 84.7017 209.274C85.6217 209.214 86.5417 209.184 87.4717 209.174C88.3917 209.174 89.3218 209.214 90.2318 209.274C94.5219 209.534 98.642 210.454 102.732 211.674C105.222 212.424 107.732 213.114 110.152 214.024C111.622 214.574 112.642 215.804 113.272 217.274C113.532 217.824 113.852 218.394 113.922 218.984C114.142 220.754 112.972 221.664 111.692 222.594C110.602 223.384 109.372 223.964 108.062 224.314C106.682 224.674 105.372 224.594 103.952 224.644C103.562 224.654 103.182 224.675 102.802 224.695C100.102 224.855 97.4119 225.275 94.7819 225.905ZM122.972 402.398C121.512 414.368 118.972 426.189 117.292 438.099C117.142 439.169 117.102 440.269 117.032 441.349C116.662 446.899 116.762 457.389 110.432 459.979C110.122 460.109 109.772 460.189 109.452 460.099C109.072 459.969 108.812 459.629 108.592 459.299C107.002 456.769 106.442 453.659 106.242 450.719C106.062 448.149 106.292 445.579 106.452 443.009C106.872 436.169 106.912 429.259 105.812 422.498C105.522 420.718 105.252 418.938 104.922 417.168C104.512 414.978 104.022 412.798 103.632 410.588C102.802 405.858 102.772 401.068 103.032 396.308C103.142 393.988 103.852 391.668 104.522 389.408C105.352 386.658 106.802 384.218 109.072 382.398C110.462 381.278 112.082 380.698 113.932 380.628C116.462 380.538 118.712 381.038 120.432 383.028C121.722 384.508 122.452 386.388 122.902 388.298C123.372 390.278 123.552 392.298 123.562 394.338C123.582 397.018 123.302 399.728 122.972 402.398ZM129.213 303.926C128.883 314.726 127.443 325.447 125.932 336.137C124.712 344.877 125.512 356.067 119.422 363.257C113.842 369.857 110.272 361.527 108.512 356.817C107.082 352.967 106.142 348.957 105.322 344.947C103.722 337.057 102.582 329.077 102.092 321.036C101.622 313.266 101.702 305.456 101.322 297.666C100.962 290.676 101.672 282.636 109.722 280.566C112.982 279.726 116.432 280.086 119.732 280.756C121.402 281.106 123.082 281.576 124.592 282.386C125.842 283.066 126.983 284.006 127.693 285.246C128.843 287.256 128.843 289.826 129.003 292.076C129.183 294.626 129.273 297.196 129.273 299.766C129.273 301.156 129.253 302.546 129.213 303.926ZM130.193 240.585C131.123 242.575 131.563 244.755 131.833 246.925C132.283 250.555 132.313 254.215 132.333 257.865C132.343 258.165 132.343 258.475 132.343 258.785C132.353 261.595 132.343 264.405 132.003 267.195C131.693 269.785 130.943 272.195 128.493 273.485C125.733 274.926 122.302 274.895 119.282 274.935C113.992 274.995 107.812 275.216 103.002 272.655C95.4019 268.605 96.2019 257.365 95.9919 250.055C95.8919 246.645 95.7219 243.045 97.3219 240.015C99.462 235.985 103.682 235.155 107.742 234.155C111.322 233.275 114.932 233.585 118.512 233.625C120.972 233.655 123.312 234.575 125.472 235.795C127.543 236.985 129.153 238.395 130.193 240.585ZM125.682 136.713C124.382 136.423 123.092 136.143 121.802 135.813C118.982 135.083 116.182 134.343 113.372 133.603C111.532 133.093 109.672 132.643 107.862 132.033C106.042 131.403 104.242 130.673 102.502 129.843C100.912 129.093 100.322 127.593 100.102 125.933C100.042 125.503 100.082 125.053 100.092 124.622C100.172 121.772 100.862 119.082 102.032 116.492C102.622 115.162 102.972 113.732 103.652 112.462C104.612 110.692 105.632 108.922 106.882 107.362C108.272 105.652 110.192 105.362 111.972 106.502C113.302 107.352 114.382 108.422 115.272 109.672C117.372 112.662 119.432 115.672 121.462 118.712C123.742 122.172 126.073 125.603 128.163 129.163C128.963 130.543 129.153 132.283 129.613 133.863C129.353 136.473 128.283 137.293 125.682 136.713ZM129.913 109.642C129.363 109.152 128.883 108.582 128.343 108.102C126.113 106.102 123.852 104.122 121.642 102.112C120.072 100.682 118.432 99.292 117.062 97.682C115.962 96.4019 114.892 95.0019 115.022 93.0419C115.162 91.0818 117.262 88.2518 119.202 87.5918C121.692 86.7417 124.232 86.1917 126.853 86.5117C128.563 86.7317 130.243 87.2018 131.913 87.6618C135.083 88.5418 137.683 90.2918 139.973 92.6919C142.173 94.9919 143.823 97.622 145.163 100.452C146.313 102.872 147.253 105.402 148.183 107.922C148.643 109.152 148.883 110.452 149.143 111.742C149.493 113.472 149.763 115.222 150.053 116.962C149.733 118.382 150.183 119.892 148.943 121.002C148.593 121.302 148.143 121.612 147.703 121.692C146.333 121.932 145.193 121.242 144.083 120.562C142.093 119.352 140.073 118.182 138.173 116.832C136.723 115.802 135.443 114.532 134.093 113.362C132.693 112.122 131.293 110.892 129.913 109.642ZM144.793 170.733C142.783 167.893 141.393 164.713 140.573 161.323C140.143 159.573 139.693 157.823 139.243 156.093C138.823 154.453 138.373 152.813 137.963 151.173C137.833 150.693 137.813 150.183 137.733 149.673C137.433 147.873 137.173 146.043 136.823 144.243C136.473 142.443 136.013 140.663 135.613 138.863C135.493 138.303 135.403 137.743 135.313 137.163C135.083 135.633 134.863 134.103 134.633 132.563C134.483 131.513 134.283 130.463 134.203 129.393C134.133 128.043 134.573 126.813 135.273 125.673C135.793 124.812 136.953 124.492 137.893 124.752C140.243 125.423 141.883 127.153 143.793 128.503C144.813 129.223 145.913 129.823 146.963 130.523C149.263 132.043 151.443 133.633 152.033 136.623C152.443 138.713 153.063 140.783 153.553 142.863C154.093 145.153 154.613 147.453 155.093 149.763C155.433 151.423 155.653 153.103 155.983 154.763C156.293 156.313 156.723 157.843 157.043 159.403C157.183 160.073 157.163 160.773 157.243 161.453C157.473 163.573 157.743 165.693 157.953 167.813C158.073 169.113 158.123 170.423 158.243 172.113C158.123 172.993 157.983 174.253 157.803 175.504C157.643 176.594 157.013 177.014 155.903 176.994C153.313 176.964 151.033 176.214 148.793 174.884C147.023 173.823 145.903 172.283 144.793 170.733ZM160.823 221.074C160.563 224.815 160.273 228.605 159.013 232.125C158.763 232.835 158.353 233.625 157.613 233.755C154.873 234.245 153.373 226.095 152.923 224.364C150.703 215.794 149.533 206.964 149.133 198.104C149.133 197.984 149.123 197.854 149.113 197.734C149.053 196.134 149.013 194.494 149.543 192.994C150.763 189.574 154.753 189.044 157.903 189.724C158.623 189.874 159.363 190.114 159.893 190.624C160.653 191.364 160.863 192.504 160.993 193.564C162.133 202.684 161.483 211.914 160.823 221.074Z"
       fill="#F30808"
       class="body" />
    <g
       id="traps">
      <path
         id="Vector_2"
         d="M129.612 133.863C129.352 136.473 128.282 137.293 125.682 136.713C124.382 136.423 123.092 136.143 121.802 135.813C118.982 135.083 116.182 134.343 113.372 133.603C111.532 133.093 109.672 132.643 107.862 132.033C106.042 131.403 104.242 130.673 102.502 129.843C100.912 129.093 100.322 127.593 100.102 125.933C100.042 125.503 100.082 125.053 100.092 124.623C100.172 121.773 100.862 119.083 102.032 116.493C102.622 115.163 102.972 113.733 103.652 112.463C104.612 110.693 105.632 108.923 106.882 107.363C108.272 105.653 110.192 105.363 111.972 106.503C113.302 107.353 114.382 108.423 115.272 109.673C117.372 112.663 119.432 115.673 121.462 118.713C123.742 122.173 126.072 125.603 128.162 129.163C128.962 130.543 129.152 132.283 129.612 133.863Z"
         fill="#0066F9"
         class="traps" />
      <path
         id="Vector_3"
         d="M74.8309 125.933C74.6109 127.593 74.0209 129.093 72.4409 129.843C70.6909 130.673 68.8909 131.403 67.0709 132.033C65.2609 132.643 63.4109 133.093 61.5609 133.603C58.7509 134.343 55.9509 135.083 53.1309 135.813C51.8509 136.143 50.5509 136.423 49.2609 136.713C46.6609 137.293 45.5809 136.473 45.3209 133.863C45.7809 132.283 45.9709 130.543 46.7709 129.163C48.8609 125.603 51.1909 122.173 53.4809 118.713C55.5009 115.673 57.5609 112.663 59.6609 109.673C60.5509 108.423 61.6309 107.353 62.9609 106.503C64.7409 105.363 66.6609 105.653 68.0509 107.363C69.3009 108.923 70.3209 110.693 71.2809 112.463C71.9609 113.733 72.3109 115.163 72.9009 116.493C74.0709 119.083 74.7609 121.773 74.8409 124.623C74.8509 125.053 74.8909 125.503 74.8309 125.933Z"
         fill="#0066F9"
         class="traps" />
    </g>
    <g
       id="lats">
      <path
         id="Vector_4"
         d="M123.308 150.572C122.948 153.652 122.738 156.732 122.588 159.822C122.328 165.542 122.098 171.262 121.738 176.982C121.508 180.512 121.388 184.152 120.828 187.652C120.268 191.103 120.108 194.613 119.378 198.043C118.668 201.433 117.548 204.773 115.738 207.723C115.438 208.213 115.078 208.733 114.548 208.973C113.918 209.233 113.208 209.073 112.568 208.843C110.738 208.163 109.178 206.923 107.668 205.683C104.488 203.133 101.318 200.563 98.1475 198.003C95.6674 196.013 92.5874 193.783 91.5873 190.603C91.2973 189.682 91.0773 188.722 90.9073 187.772C90.6473 186.332 90.4773 184.972 90.4473 183.572C90.4373 182.932 90.4573 182.262 90.5073 181.592C90.6273 180.112 90.7773 178.632 90.8773 177.152C91.0173 175.042 91.5673 172.882 91.9074 170.802C92.2674 168.632 92.6374 166.482 93.0574 164.332C93.8874 160.042 94.9374 155.792 96.5274 151.722C97.3475 149.652 98.3075 147.602 99.6575 145.832C100.888 144.212 102.488 142.802 104.328 141.902C106.208 140.952 108.388 140.942 110.448 141.042C114.328 141.232 118.448 141.912 121.378 144.482C122.248 145.232 122.998 146.162 123.298 147.272C123.588 148.342 123.438 149.472 123.308 150.572Z"
         fill="#0066F9"
         class="lats" />
      <path
         id="Vector_5"
         d="M85.0173 183.572C84.9973 184.972 84.8173 186.332 84.5573 187.772C84.3873 188.722 84.1773 189.682 83.8873 190.603C82.8773 193.783 79.7972 196.013 77.3172 198.003C74.1471 200.563 70.977 203.133 67.807 205.683C66.2869 206.923 64.7269 208.163 62.8969 208.843C62.2668 209.073 61.5468 209.233 60.9268 208.973C60.3868 208.733 60.0368 208.213 59.7268 207.723C57.9168 204.773 56.7967 201.433 56.0867 198.043C55.3567 194.613 55.1967 191.103 54.6367 187.652C54.0767 184.152 53.9567 180.512 53.7367 176.982C53.3767 171.262 53.1467 165.542 52.8767 159.822C52.7267 156.732 52.5166 153.652 52.1566 150.572C52.0266 149.472 51.8766 148.342 52.1666 147.272C52.4767 146.162 53.2267 145.232 54.0867 144.482C57.0167 141.912 61.1368 141.232 65.0169 141.042C67.0769 140.942 69.257 140.952 71.147 141.902C72.9771 142.802 74.5771 144.212 75.8171 145.832C77.1571 147.602 78.1172 149.652 78.9372 151.722C80.5272 155.792 81.5772 160.042 82.4073 164.332C82.8273 166.482 83.1973 168.632 83.5573 170.802C83.8973 172.882 84.4473 175.042 84.5873 177.152C84.6873 178.632 84.8373 180.112 84.9573 181.592C85.0073 182.262 85.0273 182.932 85.0173 183.572Z"
         fill="#0066F9"
         class="lats" />
    </g>
    <g
       id="triceps">
      <path
         id="Vector_6"
         d="M158.553 172.449C158.433 173.329 158.293 174.589 158.113 175.839C157.953 176.929 157.323 177.349 156.213 177.329C153.623 177.299 151.343 176.549 149.102 175.219C147.332 174.159 146.212 172.619 145.102 171.069C143.092 168.229 141.702 165.049 140.882 161.659C140.452 159.909 140.002 158.159 139.552 156.428C139.132 154.788 138.682 153.148 138.272 151.508C138.142 151.028 138.122 150.518 138.042 150.008C137.742 148.208 137.482 146.378 137.132 144.578C136.782 142.778 136.322 140.998 135.922 139.198C135.802 138.638 135.712 138.078 135.622 137.498C135.392 135.968 135.172 134.438 134.942 132.898C134.792 131.848 134.592 130.798 134.512 129.728C134.442 128.378 134.882 127.148 135.582 126.008C136.102 125.148 137.262 124.828 138.202 125.088C140.552 125.758 142.192 127.488 144.102 128.838C145.122 129.558 146.222 130.158 147.272 130.858C149.572 132.378 151.753 133.968 152.343 136.958C152.753 139.048 153.373 141.118 153.863 143.198C154.403 145.488 154.923 147.788 155.403 150.098C155.743 151.758 155.963 153.438 156.293 155.098C156.603 156.648 157.033 158.179 157.353 159.739C157.493 160.409 157.473 161.109 157.553 161.789C157.783 163.909 158.053 166.029 158.263 168.149C158.383 169.449 158.433 170.759 158.553 172.449Z"
         fill="#0066F9"
         class="triceps" />
      <path
         id="Vector_7"
         d="M41.0405 129.728C40.9705 130.798 40.7605 131.848 40.6105 132.898C40.3905 134.438 40.1705 135.968 39.9305 137.498C39.8405 138.078 39.7505 138.638 39.6305 139.198C39.2304 140.998 38.7704 142.778 38.4204 144.578C38.0704 146.378 37.8104 148.208 37.5104 150.008C37.4304 150.518 37.4104 151.028 37.2804 151.508C36.8704 153.148 36.4204 154.788 36.0004 156.428C35.5504 158.159 35.1004 159.909 34.6804 161.659C33.8503 165.049 32.4603 168.229 30.4503 171.069C29.3502 172.619 28.2302 174.159 26.4602 175.219C24.2101 176.549 21.9301 177.299 19.34 177.329C18.24 177.349 17.6 176.929 17.44 175.839C17.27 174.589 17.12 173.329 17 172.449C17.12 170.759 17.17 169.449 17.29 168.149C17.5 166.029 17.77 163.909 18.01 161.789C18.08 161.109 18.06 160.409 18.2 159.739C18.52 158.179 18.95 156.648 19.26 155.098C19.5901 153.438 19.8101 151.758 20.1501 150.098C20.6301 147.788 21.1501 145.488 21.6901 143.198C22.1801 141.118 22.8001 139.048 23.2101 136.958C23.8001 133.968 25.9802 132.378 28.2802 130.858C29.3302 130.158 30.4303 129.558 31.4503 128.838C33.3603 127.488 35.0004 125.758 37.3504 125.088C38.2904 124.828 39.4504 125.148 39.9705 126.008C40.6705 127.148 41.1205 128.378 41.0405 129.728Z"
         fill="#0066F9"
         class="triceps" />
    </g>
    <path
       id="lower_back"
       d="M111.708 222.42C110.618 223.21 109.388 223.79 108.078 224.14C106.698 224.5 105.388 224.42 103.968 224.47C103.578 224.48 103.198 224.5 102.818 224.52C100.118 224.68 97.4275 225.1 94.7975 225.73C92.8674 226.2 90.9274 226.81 88.9373 226.93C88.4573 226.96 87.9573 226.96 87.4873 226.96C87.0173 226.96 86.5173 226.96 86.0273 226.93C84.0373 226.81 82.0972 226.2 80.1672 225.73C77.5371 225.1 74.8471 224.68 72.147 224.52C71.767 224.5 71.387 224.48 70.997 224.47C69.577 224.42 68.2669 224.5 66.8969 224.14C65.5769 223.79 64.3469 223.21 63.2568 222.42C61.9768 221.49 60.8068 220.58 61.0268 218.81C61.0968 218.22 61.4268 217.65 61.6768 217.1C62.3168 215.63 63.3268 214.4 64.7969 213.85C67.2169 212.94 69.727 212.25 72.217 211.5C76.3071 210.28 80.4272 209.36 84.7173 209.1C85.6373 209.04 86.5573 209.01 87.4873 209C88.4073 209 89.3374 209.04 90.2474 209.1C94.5375 209.36 98.6576 210.28 102.748 211.5C105.238 212.25 107.748 212.94 110.168 213.85C111.638 214.4 112.658 215.63 113.288 217.1C113.548 217.65 113.868 218.22 113.938 218.81C114.158 220.58 112.988 221.49 111.708 222.42Z"
       fill="#0066F9"
       class="lower_back" />
    <g
       id="glutes">
      <path
         id="Vector_8"
         d="M132.747 259.245C132.757 262.055 132.747 264.865 132.407 267.655C132.097 270.245 131.347 272.655 128.897 273.945C126.137 275.385 122.707 275.355 119.687 275.395C114.397 275.455 108.217 275.675 103.407 273.115C95.8065 269.065 96.6065 257.825 96.3965 250.515C96.2965 247.105 96.1265 243.505 97.7265 240.475C99.8665 236.445 104.087 235.615 108.147 234.615C111.727 233.735 115.337 234.045 118.917 234.085C121.377 234.115 123.717 235.035 125.877 236.255C127.947 237.445 129.557 238.855 130.597 241.045C131.527 243.035 131.967 245.215 132.237 247.385C132.687 251.015 132.717 254.675 132.737 258.325C132.747 258.625 132.747 258.935 132.747 259.245Z"
         fill="#0066F9"
         class="glutes" />
      <path
         id="Vector_9"
         d="M79.3554 250.515C79.1454 257.825 79.9354 269.065 72.3354 273.115C67.5254 275.675 61.3454 275.455 56.0554 275.395C53.0354 275.355 49.6054 275.395 46.8554 273.945C44.4054 272.655 43.6554 270.245 43.3354 267.655C43.0054 264.865 42.9854 262.055 43.0054 259.245V258.325C43.0254 254.675 43.0554 251.015 43.5054 247.385C43.7754 245.215 44.2154 243.035 45.1454 241.045C46.1854 238.855 47.7954 237.445 49.8754 236.255C52.0354 235.035 54.3654 234.115 56.8254 234.085C60.4054 234.045 64.0154 233.735 67.5954 234.615C71.6654 235.615 75.8854 236.445 78.0254 240.475C79.6154 243.505 79.4454 247.105 79.3554 250.515Z"
         fill="#0066F9"
         class="glutes" />
    </g>
    <g
       id="hamstrings">
      <path
         id="Vector_10"
         d="M129.612 299.69C129.612 301.08 129.592 302.47 129.552 303.85C129.222 314.65 127.782 325.37 126.272 336.061C125.052 344.801 125.852 355.991 119.762 363.181C114.181 369.781 110.611 361.451 108.851 356.741C107.421 352.891 106.481 348.881 105.661 344.871C104.061 336.981 102.921 329 102.431 320.96C101.961 313.19 102.041 305.38 101.661 297.59C101.301 290.6 102.011 282.559 110.061 280.489C113.321 279.649 116.772 280.009 120.072 280.679C121.742 281.029 123.422 281.499 124.932 282.309C126.182 282.989 127.322 283.929 128.032 285.17C129.182 287.18 129.182 289.75 129.342 292C129.522 294.55 129.612 297.12 129.612 299.69Z"
         fill="#0066F9"
         class="hamstrings" />
      <path
         id="Vector_11"
         d="M73.9606 297.59C73.5706 305.38 73.6606 313.19 73.1805 320.96C72.7005 329 71.5505 336.981 69.9505 344.871C69.1405 348.881 68.1904 352.891 66.7604 356.741C65.0104 361.451 61.4403 369.781 55.8502 363.181C49.7601 355.991 50.5601 344.801 49.3401 336.061C47.83 325.37 46.39 314.65 46.06 303.85C46.02 302.47 46 301.08 46 299.69C46 297.12 46.09 294.55 46.27 292C46.43 289.75 46.43 287.18 47.58 285.17C48.29 283.929 49.4301 282.989 50.6801 282.309C52.1901 281.499 53.8702 281.029 55.5402 280.679C58.8503 280.009 62.2903 279.649 65.5504 280.489C73.6006 282.559 74.3106 290.6 73.9606 297.59Z"
         fill="#0066F9"
         class="hamstrings" />
    </g>
    <g
       id="calves">
      <path
         id="Vector_12"
         d="M70.9314 410.971C70.5414 413.181 70.0514 415.361 69.6414 417.551C69.3214 419.321 69.0414 421.101 68.7514 422.881C67.6513 429.641 67.7013 436.551 68.1114 443.391C68.2714 445.961 68.5014 448.531 68.3214 451.101C68.1214 454.041 67.5613 457.151 65.9713 459.682C65.7513 460.012 65.4913 460.352 65.1113 460.482C64.8013 460.572 64.4413 460.492 64.1413 460.362C57.8011 457.771 57.9012 447.281 57.5311 441.731C57.4611 440.651 57.4211 439.551 57.2711 438.481C55.5911 426.571 53.0511 414.751 51.591 402.78C51.261 400.11 50.981 397.4 51.001 394.72C51.011 392.68 51.191 390.66 51.661 388.68C52.111 386.77 52.841 384.89 54.1311 383.41C55.8511 381.42 58.1012 380.92 60.6312 381.01C62.4812 381.08 64.1013 381.66 65.4913 382.78C67.7713 384.6 69.2114 387.04 70.0414 389.79C70.7114 392.05 71.4214 394.37 71.5414 396.69C71.7914 401.45 71.7614 406.24 70.9314 410.971Z"
         fill="#0066F9"
         class="calves" />
      <path
         id="Vector_13"
         d="M123.192 394.72C123.212 397.4 122.932 400.11 122.602 402.78C121.142 414.751 118.602 426.571 116.922 438.481C116.772 439.551 116.732 440.651 116.662 441.731C116.292 447.281 116.392 457.771 110.062 460.362C109.752 460.492 109.402 460.572 109.082 460.482C108.702 460.352 108.442 460.012 108.222 459.682C106.632 457.151 106.072 454.041 105.872 451.101C105.692 448.531 105.922 445.961 106.082 443.391C106.502 436.551 106.542 429.641 105.442 422.881C105.152 421.101 104.882 419.321 104.552 417.551C104.142 415.361 103.652 413.181 103.262 410.971C102.432 406.24 102.402 401.45 102.662 396.69C102.772 394.37 103.482 392.05 104.152 389.79C104.982 387.04 106.432 384.6 108.702 382.78C110.092 381.66 111.712 381.08 113.562 381.01C116.092 380.92 118.342 381.42 120.062 383.41C121.352 384.89 122.082 386.77 122.532 388.68C123.002 390.66 123.182 392.68 123.192 394.72Z"
         fill="#0066F9"
         class="calves" />
    </g>
  </g>
  <defs
     id="defs1">
    <clipPath
       id="clip0_696_98">
      <rect
         width="174.954"
         height="500"
         fill="white"
         id="rect1" />
    </clipPath>
  </defs>
</svg>
